<?xml version="1.0" standalone="no"?>
<!DOCTYPE svg PUBLIC "-//W3C//DTD SVG 20010904//EN"
 "http://www.w3.org/TR/2001/REC-SVG-20010904/DTD/svg10.dtd">
<svg version="1.0" xmlns="http://www.w3.org/2000/svg"
 width="751.000000pt" height="98.000000pt" viewBox="0 0 751.000000 98.000000"
 preserveAspectRatio="xMidYMid meet">

<g transform="translate(0.000000,98.000000) scale(0.100000,-0.100000)"
fill="#000000" stroke="none">
<path d="M134 922 c-8 -4 40 -63 132 -160 l144 -154 0 -99 0 -99 145 0 145 0
0 100 0 101 140 148 c77 82 140 154 140 160 0 6 -15 11 -32 11 -29 0 -47 -14
-149 -120 l-115 -121 -99 108 c-54 59 -106 114 -114 121 -16 13 -317 18 -337
4z"/>
<path d="M1063 678 c-139 -139 -249 -256 -245 -260 5 -5 125 -7 268 -6 l259 3
0 40 0 40 -178 5 -177 5 113 113 114 113 155 -160 155 -161 177 0 c146 0 177
2 174 14 -2 7 -112 124 -245 260 -231 236 -243 246 -279 246 -36 0 -50 -11
-291 -252z"/>
<path d="M2055 923 c-88 -20 -141 -58 -178 -127 -29 -55 -31 -193 -3 -246 26
-49 64 -88 111 -113 38 -21 55 -22 342 -25 l302 -3 7 27 c14 56 5 59 -211 64
l-198 5 -20 27 c-38 51 -36 249 4 289 17 17 35 19 220 19 l200 0 -3 43 -3 42
-275 1 c-151 1 -284 0 -295 -3z"/>
<path d="M2705 918 c-3 -8 -4 -124 -3 -258 l3 -245 145 0 145 0 3 118 3 117
114 0 114 0 3 -117 3 -118 145 0 145 0 0 255 0 255 -145 0 -145 0 -3 -97 -3
-98 -114 0 -114 0 -3 98 -3 97 -143 3 c-109 2 -144 0 -147 -10z"/>
<path d="M3828 683 c-136 -136 -248 -253 -248 -260 0 -11 53 -13 263 -11 l262
3 0 40 0 40 -178 5 -177 5 113 113 113 113 157 -161 157 -160 174 0 c96 0 177
3 179 8 3 4 -106 121 -242 260 -239 245 -248 252 -286 252 -38 0 -47 -8 -287
-247z"/>
<path d="M4465 920 c-4 -6 57 -77 134 -158 l140 -148 3 -100 3 -99 145 0 145
0 3 102 3 102 139 147 c76 82 136 152 134 156 -3 4 -19 8 -37 8 -27 0 -47 -16
-147 -121 l-115 -121 -62 68 c-33 38 -83 93 -110 122 l-49 52 -162 0 c-99 0
-163 -4 -167 -10z"/>
<path d="M5360 887 l0 -34 407 -6 c223 -4 408 -5 410 -3 10 9 -19 47 -47 61
-24 13 -89 15 -400 15 l-370 0 0 -33z"/>
<path d="M6290 880 l0 -40 150 0 150 0 0 40 0 40 -150 0 -150 0 0 -40z"/>
<path d="M6640 880 l0 -40 390 0 390 0 0 40 0 40 -390 0 -390 0 0 -40z"/>
<path d="M5360 770 l0 -30 145 0 145 0 0 30 0 30 -145 0 -145 0 0 -30z"/>
<path d="M5910 782 c0 -10 -5 -23 -12 -30 -9 -9 20 -12 134 -12 143 0 146 0
152 23 3 12 6 25 6 30 0 4 -63 7 -140 7 -128 0 -140 -2 -140 -18z"/>
<path d="M6290 771 c0 -25 4 -29 38 -35 20 -3 88 -6 150 -6 l112 0 0 35 0 35
-150 0 -150 0 0 -29z"/>
<path d="M6880 760 l0 -30 150 0 150 0 0 30 0 30 -150 0 -150 0 0 -30z"/>
<path d="M5360 665 l0 -35 145 0 145 0 0 29 c0 37 -14 41 -167 41 l-123 0 0
-35z"/>
<path d="M5670 671 c0 -18 10 -20 103 -25 233 -13 417 -17 417 -8 0 4 -10 18
-23 30 -23 21 -31 22 -260 22 -228 0 -237 -1 -237 -19z"/>
<path d="M6290 660 l0 -30 150 0 150 0 0 30 0 30 -150 0 -150 0 0 -30z"/>
<path d="M6880 655 l0 -36 148 3 147 3 0 30 0 30 -147 3 -148 3 0 -36z"/>
<path d="M5360 560 l0 -30 123 0 c67 0 132 -3 145 -6 20 -6 22 -3 22 30 l0 36
-145 0 -145 0 0 -30z"/>
<path d="M5916 579 c-2 -8 -6 -24 -9 -37 l-5 -23 151 3 152 3 3 28 c3 27 3 27
-60 27 -35 0 -100 3 -145 7 -66 5 -83 3 -87 -8z"/>
<path d="M6290 550 l0 -30 150 0 150 0 0 30 0 30 -150 0 -150 0 0 -30z"/>
<path d="M6880 550 l0 -30 150 0 150 0 0 30 0 30 -150 0 -150 0 0 -30z"/>
<path d="M5362 448 l3 -33 350 -3 c374 -3 407 1 450 48 18 20 15 20 -394 20
l-412 0 3 -32z"/>
<path d="M6290 445 l0 -36 148 3 c146 3 147 3 150 27 2 13 -2 28 -10 32 -7 5
-75 9 -150 9 l-138 0 0 -35z"/>
<path d="M6880 440 l0 -31 148 3 147 3 3 28 3 27 -150 0 -151 0 0 -30z"/>
<path d="M410 300 c0 -29 -4 -40 -15 -40 -8 0 -15 -4 -15 -10 0 -5 7 -10 15
-10 12 0 15 -16 15 -80 0 -47 4 -80 10 -80 6 0 10 33 10 80 l0 80 35 0 c19 0
35 5 35 10 0 6 -16 10 -35 10 -32 0 -35 2 -35 30 0 30 1 30 55 30 30 0 55 5
55 10 0 6 -28 10 -65 10 l-65 0 0 -40z"/>
<path d="M1680 279 c0 -54 -2 -60 -17 -53 -10 4 -35 9 -55 12 -77 9 -121 -90
-61 -137 37 -30 66 -35 99 -18 16 8 35 12 42 10 9 -4 12 25 12 121 0 77 -4
126 -10 126 -6 0 -10 -27 -10 -61z m-20 -79 c41 -41 12 -100 -47 -100 -64 0
-96 58 -56 102 22 24 77 24 103 -2z"/>
<path d="M2090 210 c0 -80 4 -130 10 -130 6 0 10 50 10 130 0 80 -4 130 -10
130 -6 0 -10 -50 -10 -130z"/>
<path d="M4910 280 c0 -57 -1 -60 -19 -50 -34 18 -78 11 -110 -16 -39 -32 -41
-75 -7 -109 33 -33 67 -40 105 -20 17 9 36 13 41 10 6 -4 10 41 10 119 0 77
-4 126 -10 126 -6 0 -10 -27 -10 -60z m-22 -76 c49 -34 16 -104 -49 -104 -61
0 -90 59 -49 100 24 24 67 26 98 4z"/>
<path d="M5910 280 c0 -55 -10 -75 -25 -50 -3 6 -20 10 -36 10 -85 0 -129 -81
-75 -135 33 -33 67 -40 105 -20 17 9 36 13 41 10 6 -4 10 41 10 119 0 77 -4
126 -10 126 -6 0 -10 -27 -10 -60z m-20 -80 c43 -43 13 -100 -51 -100 -40 0
-69 26 -69 62 0 28 37 58 70 58 17 0 39 -9 50 -20z"/>
<path d="M6150 210 c0 -80 4 -130 10 -130 6 0 10 50 10 130 0 80 -4 130 -10
130 -6 0 -10 -50 -10 -130z"/>
<path d="M6406 324 c-9 -8 -16 -30 -16 -49 0 -25 -5 -34 -22 -39 l-23 -7 23
-9 c20 -8 22 -16 22 -75 0 -37 4 -65 10 -65 6 0 10 30 10 70 0 56 3 70 15 70
8 0 15 5 15 10 0 6 -7 10 -16 10 -12 0 -14 9 -12 38 3 34 6 37 36 40 17 2 32
7 32 13 0 15 -57 10 -74 -7z"/>
<path d="M3820 290 c0 -5 5 -10 10 -10 6 0 10 5 10 10 0 6 -4 10 -10 10 -5 0
-10 -4 -10 -10z"/>
<path d="M3280 266 c0 -16 -8 -26 -22 -31 l-23 -8 23 -4 c20 -4 22 -10 22 -74
0 -39 4 -69 10 -69 6 0 10 30 10 70 0 56 3 70 15 70 8 0 15 5 15 10 0 6 -7 10
-15 10 -9 0 -15 9 -15 25 0 14 -4 25 -10 25 -5 0 -10 -11 -10 -24z"/>
<path d="M6668 284 c-5 -4 -8 -16 -8 -26 0 -10 -7 -18 -15 -18 -8 0 -15 -4
-15 -10 0 -5 7 -10 15 -10 12 0 15 -14 15 -70 0 -40 4 -70 10 -70 6 0 10 30
10 70 0 56 3 70 15 70 8 0 15 5 15 10 0 6 -6 10 -14 10 -8 0 -16 12 -18 26 -2
14 -6 22 -10 18z"/>
<path d="M589 211 c-31 -32 -35 -47 -18 -84 38 -84 169 -59 169 33 0 77 -93
108 -151 51z m113 -8 c43 -39 10 -103 -53 -103 -61 0 -90 59 -49 100 24 24 77
26 102 3z"/>
<path d="M795 230 c-4 -6 -11 -8 -16 -5 -5 4 -9 -25 -9 -69 0 -44 4 -76 10
-76 6 0 10 26 10 58 0 60 11 82 42 82 10 0 18 5 18 10 0 13 -47 13 -55 0z"/>
<path d="M905 231 c-3 -6 -11 -9 -16 -6 -5 4 -9 -25 -9 -69 0 -44 4 -76 10
-76 6 0 10 26 10 58 0 62 11 82 45 82 34 0 45 -20 45 -82 0 -32 4 -58 10 -58
6 0 10 26 10 58 0 62 11 82 45 82 34 0 45 -20 45 -82 0 -32 4 -58 10 -58 6 0
10 28 10 63 0 78 -20 103 -72 93 -40 -8 -53 -8 -99 0 -23 4 -39 2 -44 -5z"/>
<path d="M1176 216 c-36 -35 -36 -87 1 -115 38 -31 69 -36 98 -17 13 9 31 13
39 10 14 -5 16 5 16 62 0 64 -2 69 -22 71 -13 1 -42 5 -65 9 -36 5 -45 3 -67
-20z m114 -18 c39 -42 13 -98 -47 -98 -43 0 -73 24 -73 58 0 59 78 85 120 40z"/>
<path d="M1390 231 c-8 -6 -18 -7 -22 -5 -4 3 -8 -29 -8 -70 0 -44 4 -76 10
-76 6 0 10 26 10 58 0 62 11 82 45 82 34 0 45 -20 45 -82 0 -32 4 -58 10 -58
6 0 10 28 10 63 0 49 -4 68 -18 80 -20 19 -59 22 -82 8z"/>
<path d="M1749 211 c-36 -37 -37 -70 -2 -105 33 -33 64 -41 95 -26 45 24 58
42 58 81 0 76 -94 107 -151 50z m113 -8 c43 -39 10 -103 -53 -103 -61 0 -90
59 -49 100 24 24 77 26 102 3z"/>
<path d="M2160 212 c-16 -17 -30 -37 -30 -46 0 -32 24 -66 58 -82 32 -15 38
-15 68 0 19 8 39 13 46 11 10 -4 13 12 13 64 0 62 -2 69 -20 70 -11 0 -39 3
-62 7 -38 5 -46 3 -73 -24z m112 -9 c22 -20 23 -61 1 -85 -25 -28 -88 -24
-109 7 -40 62 51 129 108 78z"/>
<path d="M2351 226 c-20 -24 -8 -50 32 -69 39 -18 42 -23 28 -46 -6 -9 -19
-12 -40 -8 -34 7 -43 -8 -10 -18 30 -10 67 2 74 24 9 29 -5 51 -42 66 -40 17
-39 41 1 38 17 -1 26 2 23 10 -6 18 -52 20 -66 3z"/>
<path d="M2643 233 c-21 -4 -23 -10 -23 -79 0 -43 4 -74 10 -74 6 0 10 23 10
51 0 66 13 89 50 89 37 0 50 -23 50 -89 0 -28 5 -51 10 -51 6 0 10 26 10 58 0
62 11 82 45 82 34 0 45 -20 45 -82 0 -32 4 -58 10 -58 6 0 10 27 10 60 0 47
-4 64 -20 80 -22 22 -69 27 -87 9 -8 -8 -17 -8 -31 0 -21 11 -47 12 -89 4z"/>
<path d="M2919 211 c-32 -32 -35 -47 -18 -85 10 -22 62 -56 86 -56 19 0 74 41
68 51 -5 7 -13 5 -24 -5 -19 -17 -81 -22 -81 -7 0 5 25 28 56 52 l56 43 -22
18 c-35 28 -86 23 -121 -11z m105 1 c7 -12 -91 -85 -104 -77 -16 10 -12 39 10
63 21 22 83 31 94 14z"/>
<path d="M3115 230 c-4 -6 -11 -8 -16 -5 -5 4 -9 -25 -9 -69 0 -44 4 -76 10
-76 6 0 10 26 10 58 0 62 11 82 45 82 34 0 45 -20 45 -82 0 -32 4 -58 10 -58
6 0 10 28 10 63 0 49 -4 68 -18 80 -20 19 -77 23 -87 7z"/>
<path d="M3374 217 c-49 -42 -31 -109 36 -137 23 -10 35 -9 64 5 36 17 53 45
19 29 -28 -12 -93 -17 -93 -7 0 4 25 28 56 52 l57 44 -23 19 c-31 25 -83 23
-116 -5z m100 -6 c6 -9 -80 -81 -96 -81 -15 0 -8 53 9 72 17 19 77 25 87 9z"/>
<path d="M3552 228 c-23 -23 -14 -54 21 -69 45 -20 45 -55 -1 -52 -40 1 -39
-20 2 -25 62 -8 77 61 19 88 -40 18 -40 46 0 43 29 -2 37 11 11 21 -24 9 -39
7 -52 -6z"/>
<path d="M3820 160 c0 -47 4 -80 10 -80 6 0 10 33 10 80 0 47 -4 80 -10 80 -6
0 -10 -33 -10 -80z"/>
<path d="M3900 231 c-8 -6 -18 -7 -22 -5 -4 3 -8 -29 -8 -70 0 -44 4 -76 10
-76 6 0 10 26 10 58 0 62 11 82 46 82 32 0 42 -19 46 -80 4 -70 23 -64 23 7 0
36 -6 58 -19 72 -20 22 -61 27 -86 12z"/>
<path d="M4065 230 c-3 -5 -12 -7 -20 -3 -12 4 -15 -8 -15 -71 0 -44 4 -76 10
-76 6 0 10 24 10 54 0 60 16 86 54 86 35 0 46 -20 46 -82 0 -32 4 -58 10 -58
6 0 10 28 10 64 0 56 -3 67 -22 80 -25 18 -74 21 -83 6z"/>
<path d="M4219 211 c-36 -37 -37 -62 -1 -100 36 -40 69 -46 110 -21 57 35 62
98 10 134 -36 26 -85 20 -119 -13z m113 -8 c22 -20 24 -66 2 -87 -19 -19 -74
-21 -96 -4 -27 22 -30 53 -7 81 24 32 72 36 101 10z"/>
<path d="M4390 233 c0 -13 63 -143 69 -143 8 0 71 126 71 140 0 24 -19 6 -40
-40 -13 -27 -26 -50 -30 -50 -4 0 -17 23 -30 50 -20 43 -40 65 -40 43z"/>
<path d="M4577 220 c-38 -30 -38 -90 0 -119 38 -31 69 -36 98 -17 13 9 31 13
39 10 14 -5 16 5 16 62 0 64 -2 69 -22 71 -13 1 -41 5 -63 9 -32 4 -46 1 -68
-16z m113 -22 c25 -28 26 -52 0 -78 -41 -41 -120 -16 -120 38 0 59 78 85 120
40z"/>
<path d="M4986 219 c-37 -29 -37 -89 0 -118 39 -30 60 -34 97 -16 33 15 57 50
57 81 0 9 -13 29 -29 45 -36 36 -86 39 -125 8z m113 -25 c26 -33 26 -49 1 -74
-41 -41 -120 -16 -120 38 0 62 80 85 119 36z"/>
<path d="M5190 231 c-8 -6 -18 -7 -22 -5 -4 3 -8 -29 -8 -70 0 -44 4 -76 10
-76 6 0 10 26 10 58 0 60 11 82 41 82 10 0 21 5 24 10 8 13 -35 13 -55 1z"/>
<path d="M5295 217 c-50 -43 -33 -109 35 -137 24 -10 35 -9 60 3 17 9 38 13
46 10 11 -4 14 8 14 65 0 66 -1 70 -22 71 -13 0 -41 3 -64 7 -34 5 -45 2 -69
-19z m114 -23 c12 -15 21 -33 21 -40 0 -26 -39 -54 -74 -54 -41 0 -66 22 -66
57 0 63 80 87 119 37z"/>
<path d="M5485 224 c-9 -9 -14 -23 -11 -31 3 -8 6 -16 6 -19 0 -2 16 -10 36
-19 49 -20 44 -50 -9 -49 -30 1 -35 -1 -26 -12 14 -18 50 -18 73 -1 29 21 17
59 -24 78 -46 22 -47 45 -1 41 29 -2 32 0 21 13 -16 20 -44 19 -65 -1z"/>
<path d="M5992 224 c-52 -36 -47 -99 10 -134 38 -24 73 -19 103 12 l20 21 -20
-8 c-31 -13 -95 -18 -95 -8 0 4 25 28 56 52 l57 44 -23 19 c-27 22 -78 23
-108 2z m92 -13 c6 -9 -80 -81 -96 -81 -15 0 -8 53 9 72 17 19 77 25 87 9z"/>
<path d="M6472 174 c3 -58 6 -69 29 -86 22 -17 30 -18 65 -7 l39 12 -2 69 c0
37 -5 68 -10 68 -4 0 -10 -28 -13 -62 -5 -60 -6 -63 -33 -66 -44 -5 -57 13
-57 79 0 34 -4 59 -10 59 -7 0 -10 -25 -8 -66z"/>
<path d="M6730 186 c0 -68 6 -83 39 -101 21 -11 34 -11 64 -2 l37 12 0 72 c0
42 -4 73 -10 73 -6 0 -10 -26 -10 -58 0 -65 -11 -82 -52 -82 -35 0 -48 24 -48
89 0 28 -4 51 -10 51 -5 0 -10 -24 -10 -54z"/>
<path d="M6930 231 c-8 -6 -18 -7 -22 -5 -4 3 -8 -29 -8 -70 0 -44 4 -76 10
-76 6 0 10 26 10 58 0 60 11 82 42 82 10 0 18 5 18 10 0 12 -30 13 -50 1z"/>
<path d="M7029 211 c-36 -37 -37 -62 -1 -100 36 -40 69 -46 110 -21 57 35 62
98 10 134 -36 26 -85 20 -119 -13z m114 -8 c40 -46 14 -103 -47 -103 -62 0
-91 49 -55 93 24 32 77 37 102 10z"/>
</g>
</svg>
